<svg width="775" height="215" viewBox="0 0 775 215" fill="none" xmlns="http://www.w3.org/2000/svg">
<g clip-path="url(#clip0_1_2)">
<path d="M19.9866 4.05334C75.9333 3.94667 132.067 3.98667 188.027 4.04001C195.427 3.86667 202.12 8.05334 205.307 14.7067C207.813 19.9333 206.893 26.2933 207.04 32C207.027 84.8933 207.053 137.787 207.04 190.68C207.147 201.04 198.373 209.613 188.027 209.293C132.987 209.4 77.72 209.28 22.6666 209.347C18.3866 209.32 14.3466 209.107 10.6133 206.787C4.31998 203.333 1.11998 196.373 1.34665 189.347C1.39998 133.947 1.31998 78 1.38665 22.64C1.37331 12.3467 9.65331 3.96001 19.9866 4.05334Z" fill="black"/>
<path d="M244.333 54.3333C248.44 54.3333 252.56 54.3333 256.667 54.3333C256.68 76.4933 256.653 98.6533 256.68 120.813C266.067 111.453 275.44 102.08 284.8 92.68C290.467 92.6667 296.133 92.6533 301.813 92.68C291.733 102.587 281.52 112.347 271.44 122.253C282.36 133.92 293.28 145.587 304.107 157.333C298.333 157.333 292.573 157.32 286.8 157.36C276.68 146.24 266.707 134.987 256.667 123.787C256.667 134.973 256.667 146.147 256.68 157.32C252.56 157.333 248.44 157.333 244.32 157.333C244.333 123 244.333 88.6667 244.333 54.3333Z" fill="black"/>
<path d="M623.667 54.3467C627.667 54.3333 631.667 54.3333 635.667 54.3333C635.653 70.3067 635.693 86.2933 635.653 102.267C645.467 88.76 666.853 87.92 679.32 98.0267C695.64 110.827 695.533 139.8 678.973 152.347C666.16 162.267 645.68 161.293 635.627 147.827C635.667 151 635.68 154.16 635.68 157.333C631.68 157.333 627.667 157.333 623.667 157.333C623.667 123 623.667 88.6667 623.667 54.3467Z" fill="black"/>
<path d="M593.76 61.7067C597.28 59.68 601.76 60.6533 604.453 63.5733C608.2 67.4933 607.413 74.52 602.573 77.2133C598.693 79.8267 593.08 78.7867 590.48 74.8667C587.48 70.48 588.84 64.04 593.76 61.7067Z" fill="black"/>
<path d="M396 74.6667C400 74.6667 404 74.6667 408 74.6667C408 80.6667 408 86.6667 408.013 92.68C413.893 92.6667 419.787 92.6667 425.667 92.68C425.667 96.2267 425.667 99.7733 425.667 103.32C419.787 103.347 413.893 103.333 408 103.333C408.107 114.227 407.773 125.133 408.16 136.013C408.533 139.64 408.64 144.453 412.28 146.467C416.787 148.547 421.52 147.16 426.08 146.04C426 149.747 425.987 153.467 425.933 157.187C418.533 159.227 409.467 160.347 402.6 156.12C397.427 152.72 396.12 147.24 396.013 141.387C395.947 128.707 396.04 116.013 395.987 103.333C391.213 103.333 386.427 103.333 381.653 103.333C381.667 99.7733 381.667 96.2267 381.667 92.6667C386.44 92.6667 391.227 92.6667 396 92.6667C396 86.6667 396 80.6667 396 74.6667Z" fill="black"/>
<path d="M364.267 97.0533C374.44 105.133 376.587 117.333 376.387 129.667C359.013 129.76 341.64 129.493 324.267 129.8C325.373 143.507 340.293 151.253 352.693 147.227C357.587 145.627 360.613 142.253 364.147 138.76C367.24 141.093 370.32 143.453 373.4 145.8C363.173 158.92 344.387 162.347 329.493 155.84C309.28 146.44 305.387 116.227 320.893 100.907C331.547 89.6667 351.853 87.88 364.267 97.0533Z" fill="black"/>
<path d="M464.253 92.2533C468.56 91.2133 472.973 91.08 477.36 91.4667C491.973 92.9333 504.813 105.453 506.747 120C507.653 127.493 506.773 135.013 502.96 141.627C497.347 151.36 487.187 157.8 475.987 158.8C462.173 160.4 448.627 152.853 442.253 140.6C437.16 130.947 437.107 118.6 442.36 109C446.96 100.8 455.08 94.44 464.253 92.2533Z" fill="black"/>
<path d="M603.987 92.6667C604.013 114.213 604 135.773 604 157.333C599.893 157.333 595.773 157.333 591.667 157.333C591.653 135.773 591.667 114.227 591.667 92.68C595.773 92.6667 599.88 92.6667 603.987 92.6667Z" fill="black"/>
<path d="M755.32 96.64C765.92 104.547 768.187 117.187 768.067 129.667C750.72 129.693 733.36 129.627 716.013 129.693C716.667 143.48 732.053 151.267 744.333 147.213C749.213 145.64 752.267 142.253 755.76 138.747C758.84 141.133 761.947 143.467 765.053 145.813C754.187 159.733 732.88 163.027 717.96 154.08C700.96 143.507 698.027 116.64 711.427 102.093C721.773 89.9867 742.36 87.6267 755.32 96.64Z" fill="black"/>
<path d="M514.707 92.6667C519.48 92.6667 524.24 92.6533 529.013 92.7333C535.36 109.227 541.84 125.667 548.347 142.093C554.64 125.653 560.747 109.133 566.973 92.6667C571.333 92.6667 575.68 92.6667 580.04 92.64C571.56 114.213 563.147 135.813 554.573 157.347C550.08 157.333 545.587 157.333 541.093 157.333C532.32 135.773 523.533 114.213 514.707 92.6667Z" fill="black"/>
<path d="M358.707 106.613C362.213 110.387 362.64 114.787 363.347 119.667C350.307 119.587 337.267 119.853 324.24 119.52C325.107 115.227 326.253 111.267 329.253 107.947C336.187 99.4667 351.28 98.2933 358.707 106.613Z" fill="white"/>
<path d="M748.507 104.827C753.307 108.653 754.28 113.893 754.973 119.653C741.96 119.653 728.96 119.72 715.96 119.627C716.693 115.2 717.907 111.107 721.067 107.773C727.64 99.96 740.493 98.7333 748.507 104.827Z" fill="white"/>
<path d="M466.013 103.547C472.613 101.747 480.747 102.64 486.187 107.053C497.32 115.773 496.52 136.76 484.467 144.373C475.453 149.987 461.8 148 455.613 139.027C447.627 127.6 451.44 107.64 466.013 103.547Z" fill="white"/>
<path d="M650 103.627C656.88 101.667 665.6 102.613 671.067 107.573C679.613 114.787 680.427 129.547 674.573 138.6C668.293 148.6 653.72 150 644.44 143.6C630.987 134.027 633.44 108.547 650 103.627Z" fill="white"/>
<path d="M147.984 35.0005C149.878 34.9697 151.716 36.3869 153.518 36.9415C151.278 43.1896 148.243 49.4624 143.955 54.5644C145.966 56.0062 147.996 57.2078 149.613 59.1303C151.926 61.8292 153.832 65.2983 154.863 68.6935C156.399 73.4258 156.084 78.0287 155.615 82.8904C153.166 92.6076 150.643 103.027 150.711 113.083L150.39 113.552C150.439 119.455 149.668 125.198 148.323 130.94C145.825 141.983 140.501 152.26 132.684 160.48C125.355 168.096 115.959 173.685 105.583 175.934C100.604 177.136 95.1875 177.093 90.0979 176.889C86.785 176.834 83.4413 176.064 80.221 175.337C77.2104 174.345 74.243 173.285 71.4175 171.818C61.0346 166.79 53.1627 157.627 49.1095 146.9C42.6997 129.419 46.3827 108.604 58.4682 94.4069C63.015 88.892 68.5117 85.312 74.0887 81.0233C84.2248 73.3457 95.0826 66.2041 104.781 58.0212C109.685 53.9482 114.584 50.3373 120.975 49.0125C127.237 47.8726 133.628 48.193 138.989 51.9579C143.141 47.0839 146.152 41.1192 147.984 35.0005Z" fill="white"/>
<path d="M108.026 89.2455C114.663 88.2418 121.549 90.2984 125.77 95.7418C129.228 100.576 131.101 106.635 130.979 112.601C131.296 121.419 128.015 130.366 122.44 137.121C115.181 146.099 102.372 150.286 91.3565 146.746C86.0194 145.181 80.7434 141.641 78.0352 136.628C74.7171 131.062 74.3816 124.387 75.7723 118.162C79.5479 103.291 93.0339 91.413 108.026 89.2455Z" fill="#1A1A19"/>
<path d="M111.467 98.001C112.949 97.9763 114.649 98.4261 115.569 99.6524C116.394 100.86 116.012 102.579 114.618 103.171C112.48 103.103 110.479 102.721 108.347 103.189C99.8998 104.909 92.6657 110.572 87.995 117.572C84.9063 122.6 82.6492 128.029 82.6429 134C81.3049 129.378 82.2427 124.067 83.7433 119.574C86.5007 111.231 93.0346 104.588 100.913 100.706C104.145 99.0239 107.815 98.0749 111.467 98.001Z" fill="white"/>
</g>
<defs>
<clipPath id="clip0_1_2">
<rect width="774.667" height="214.667" fill="white"/>
</clipPath>
</defs>
</svg>
