<svg width="246" height="246" viewBox="0 0 246 246" fill="none" xmlns="http://www.w3.org/2000/svg">
<g clip-path="url(#clip0_74_4)">
<path d="M78.1596 8.00001C78.253 65.76 77.9463 123.373 77.9463 181.12C94.213 187.253 110.533 193.253 126.88 199.12C163.386 155.867 200.106 112.733 236.84 69.6667C236.853 106.453 236.853 143.253 236.84 180.04C236.68 195.573 229.946 210.667 218.48 221.133C208.16 230.88 194.173 236.253 180.013 236.333C142.24 236.4 104.44 236.333 66.6663 236.373C58.5463 236.387 50.4796 234.867 43.013 231.653C23.133 223.16 9.17298 203.013 8.65298 181.347C8.62631 142.267 8.66632 103.08 8.63965 64C8.75965 41.8933 22.9063 21 43.3463 12.6133C54.693 7.52001 66.013 7.82668 78.1596 8.00001Z" fill="black"/>
<path d="M124.36 7.97334C142.893 7.98667 161.453 7.88 180 8.04C193.293 8.14667 206.48 12.8 216.533 21.56C186.973 57.56 156.973 93.28 127.52 129.373C125.96 128.853 124.4 128.32 122.84 127.787C123.2 87.8533 123.88 47.92 124.36 7.97334Z" fill="black"/>
</g>
<defs>
<clipPath id="clip0_74_4">
<rect width="245.333" height="245.333" fill="white"/>
</clipPath>
</defs>
</svg>
